<?xml version="1.0" encoding="iso-8859-1"?>
<!-- Generator: Adobe Illustrator 19.0.0, SVG Export Plug-In . SVG Version: 6.00 Build 0)  -->
<svg version="1.1" id="Layer_1" xmlns="http://www.w3.org/2000/svg" xmlns:xlink="http://www.w3.org/1999/xlink" x="0px" y="0px"
	 viewBox="0 0 469.333 469.333" style="enable-background:new 0 0 469.333 469.333;" xml:space="preserve">
<g>
	<g>
		<g>
			<path d="M338.208,67.125c-2-2-4.708-3.125-7.542-3.125h-256C68.771,64,64,68.771,64,74.667v320
				c0,5.896,4.771,10.667,10.667,10.667h320c5.896,0,10.667-4.771,10.667-10.667v-256c0-2.833-1.125-5.542-3.125-7.542
				L338.208,67.125z M384,384H85.333V85.333H326.25l57.75,57.75V384z"/>
			<path d="M149.333,202.667c5.885,0,10.667,4.781,10.667,10.667c0,5.896,4.771,10.667,10.667,10.667s10.667-4.771,10.667-10.667
				c0-17.646-14.354-32-32-32c-17.646,0-32,14.354-32,32V256c0,17.646,14.354,32,32,32c17.646,0,32-14.354,32-32
				c0-5.896-4.771-10.667-10.667-10.667S160,250.104,160,256c0,5.885-4.781,10.667-10.667,10.667
				c-5.885,0-10.667-4.781-10.667-10.667v-42.667C138.667,207.448,143.448,202.667,149.333,202.667z"/>
			<path d="M234.667,181.333h-21.333c-5.896,0-10.667,4.771-10.667,10.667v85.333c0,5.896,4.771,10.667,10.667,10.667
				c5.896,0,10.667-4.771,10.667-10.667v-32h10.667c17.646,0,32-14.354,32-32C266.667,195.687,252.312,181.333,234.667,181.333z
				 M234.667,224H224v-21.333h10.667c5.885,0,10.667,4.781,10.667,10.667C245.333,219.219,240.552,224,234.667,224z"/>
			<path d="M309.333,256v-64c0-5.896-4.771-10.667-10.667-10.667S288,186.104,288,192v64c0,17.646,14.354,32,32,32
				c17.646,0,32-14.354,32-32v-64c0-5.896-4.771-10.667-10.667-10.667s-10.667,4.771-10.667,10.667v64
				c0,5.885-4.781,10.667-10.667,10.667C314.115,266.667,309.333,261.885,309.333,256z"/>
			<path d="M458.667,106.667c5.896,0,10.667-4.771,10.667-10.667V42.667C469.333,19.135,450.198,0,426.667,0h-53.333
				c-5.896,0-10.667,4.771-10.667,10.667c0,5.885-4.781,10.667-10.667,10.667c-5.885,0-10.667-4.781-10.667-10.667
				C341.333,4.771,336.563,0,330.667,0h-288C19.135,0,0,19.135,0,42.667V96c0,5.896,4.771,10.667,10.667,10.667
				c5.885,0,10.667,4.781,10.667,10.667c0,5.885-4.781,10.667-10.667,10.667C4.771,128,0,132.771,0,138.667v288
				c0,23.531,19.135,42.667,42.667,42.667h384c23.531,0,42.667-19.135,42.667-42.667v-288c0-5.896-4.771-10.667-10.667-10.667
				c-5.885,0-10.667-4.781-10.667-10.667C448,111.448,452.781,106.667,458.667,106.667z M448,87.156
				c-12.417,4.406-21.333,16.271-21.333,30.177s8.917,25.771,21.333,30.177v279.156c0,11.76-9.573,21.333-21.333,21.333h-384
				c-11.76,0-21.333-9.573-21.333-21.333V147.51c12.417-4.406,21.333-16.271,21.333-30.177S33.75,91.562,21.333,87.156v-44.49
				c0-11.76,9.573-21.333,21.333-21.333h279.156C326.229,33.75,338.094,42.667,352,42.667s25.771-8.917,30.177-21.333h44.49
				c11.76,0,21.333,9.573,21.333,21.333V87.156z"/>
		</g>
	</g>
</g>
<g>
</g>
<g>
</g>
<g>
</g>
<g>
</g>
<g>
</g>
<g>
</g>
<g>
</g>
<g>
</g>
<g>
</g>
<g>
</g>
<g>
</g>
<g>
</g>
<g>
</g>
<g>
</g>
<g>
</g>
</svg>
